<svg xmlns="http://www.w3.org/2000/svg" viewBox="0 0 32 32"><title>40-Gear</title><g id="_40-Gear" data-name="40-Gear"><path d="M18,32H14a1,1,0,0,1-1-1V28.64a12.8,12.8,0,0,1-3.82-1.58L7.51,28.73a1,1,0,0,1-.71.29h0a1,1,0,0,1-.71-.29L3.27,25.9a1,1,0,0,1,0-1.41l1.67-1.67A12.79,12.79,0,0,1,3.36,19H1a1,1,0,0,1-1-1V14a1,1,0,0,1,1-1H3.36A12.79,12.79,0,0,1,4.94,9.18L3.27,7.51a1,1,0,0,1,0-1.41L6.1,3.27a1,1,0,0,1,1.41,0L9.18,4.94A12.8,12.8,0,0,1,13,3.36V1a1,1,0,0,1,1-1h4a1,1,0,0,1,1,1V3.36a12.8,12.8,0,0,1,3.82,1.58l1.67-1.67A1,1,0,0,1,25.19,3h0a1,1,0,0,1,.71.29L28.73,6.1a1,1,0,0,1,0,1.41L27.06,9.18A12.79,12.79,0,0,1,28.64,13H31a1,1,0,0,1,1,1v4a1,1,0,0,1-1,1H28.64a12.79,12.79,0,0,1-1.58,3.82l1.67,1.67a1,1,0,0,1,0,1.41L25.9,28.73a1,1,0,0,1-1.41,0l-1.67-1.67A12.8,12.8,0,0,1,19,28.64V31A1,1,0,0,1,18,32Zm-3-2h2V27.82a1,1,0,0,1,.83-1A10.85,10.85,0,0,0,22.37,25a1,1,0,0,1,1.29.11l1.54,1.54,1.41-1.41-1.54-1.54A1,1,0,0,1,25,22.37a10.85,10.85,0,0,0,1.87-4.53,1,1,0,0,1,1-.83H30V15H27.82a1,1,0,0,1-1-.83A10.85,10.85,0,0,0,25,9.63a1,1,0,0,1,.11-1.29l1.54-1.54L25.19,5.39,23.65,6.93A1,1,0,0,1,22.37,7a10.85,10.85,0,0,0-4.53-1.87,1,1,0,0,1-.83-1V2H15V4.18a1,1,0,0,1-.83,1A10.85,10.85,0,0,0,9.63,7a1,1,0,0,1-1.29-.11L6.81,5.39,5.39,6.81,6.93,8.35A1,1,0,0,1,7,9.63a10.85,10.85,0,0,0-1.87,4.53,1,1,0,0,1-1,.83H2v2H4.18a1,1,0,0,1,1,.83A10.85,10.85,0,0,0,7,22.37a1,1,0,0,1-.11,1.29L5.39,25.19l1.41,1.41,1.54-1.54A1,1,0,0,1,9.63,25a10.85,10.85,0,0,0,4.53,1.87,1,1,0,0,1,.83,1Z"/><path d="M16,22a6,6,0,1,1,6-6A6,6,0,0,1,16,22Zm0-10a4,4,0,1,0,4,4A4,4,0,0,0,16,12Z"/></g></svg>