<svg xmlns="http://www.w3.org/2000/svg" viewBox="0 0 32 32"><title>20-List</title><g id="_20-List" data-name="20-List"><path d="M7,8H1A1,1,0,0,1,0,7V1A1,1,0,0,1,1,0H7A1,1,0,0,1,8,1V7A1,1,0,0,1,7,8ZM2,6H6V2H2Z"/><path d="M7,20H1a1,1,0,0,1-1-1V13a1,1,0,0,1,1-1H7a1,1,0,0,1,1,1v6A1,1,0,0,1,7,20ZM2,18H6V14H2Z"/><path d="M7,32H1a1,1,0,0,1-1-1V25a1,1,0,0,1,1-1H7a1,1,0,0,1,1,1v6A1,1,0,0,1,7,32ZM2,30H6V26H2Z"/><rect x="10" y="1" width="22" height="2"/><rect x="10" y="5" width="10" height="2"/><rect x="10" y="13" width="22" height="2"/><rect x="10" y="17" width="10" height="2"/><rect x="10" y="25" width="22" height="2"/><rect x="10" y="29" width="10" height="2"/></g></svg>