<svg xmlns="http://www.w3.org/2000/svg" viewBox="0 0 32 32"><title>463-Clipboard</title><g id="_463-Clipboard" data-name="463-Clipboard"><path d="M29,0H25V2h3V30H4V2H7V0H3A1,1,0,0,0,2,1V31a1,1,0,0,0,1,1H29a1,1,0,0,0,1-1V1A1,1,0,0,0,29,0Z"/><path d="M6,4V27a1,1,0,0,0,1,1H25a1,1,0,0,0,1-1V4a1,1,0,0,0-1-1H23V1a1,1,0,0,0-1-1H10A1,1,0,0,0,9,1V3H7A1,1,0,0,0,6,4Zm5-2H21V4H11ZM8,5H9a1,1,0,0,0,1,1H22a1,1,0,0,0,1-1h1V26H8Z"/><rect x="11" y="10" width="6" height="2"/><rect x="11" y="15" width="10" height="2"/><rect x="11" y="20" width="6" height="2"/></g></svg>